# xmcd
#
# Track frame offsets: 
#        150
#        13470
#        25390
#        37920
#        50040
#        62767
#        75922
#        88762
#        101957
#        114042
#        125992
#        134107
#        147605
#        159520
#        170092
#        181952
#        195687
#        211155
#        224307
#        237387
#        247557
#        261210
#        272637
#        284467
#        297127
#        309355
#        322850
#        333320
#
# Disc length: 4593 seconds
#
# Revision: 0
# Processed by: cddbd v1.5.2PL0 Copyright (c) Steve Scherf et al.
# Submitted via: ExactAudioCopyFreeDBPlugin 1.0
#
DISCID=a611ef1c
DTITLE=George Morgan - Candy Kisses
DYEAR=2003
DGENRE=Country
TTITLE0=Candy Kisses
TTITLE1=Please Don't Let Me Love You
TTITLE2=Rainbow in My Heart
TTITLE3=All I Need Is Some More Lovin'
TTITLE4=Room Full of Roses
TTITLE5=I Love Everything About You
TTITLE6=Cry-Baby Heart
TTITLE7=Why, In Heaven's Name?
TTITLE8=Don't Be Afraid to Love Me
TTITLE9=I Know You'll Never Change
TTITLE10=Somebody Robbed My Beehive
TTITLE11=I Love No One But You
TTITLE12=I Wish I May, I Wish I Might
TTITLE13=Tennessee Hillbilly Ghost
TTITLE14=Waltzing by the Ohio
TTITLE15=My Baby Lied to Me
TTITLE16=Stranger in the Night
TTITLE17=You're a Little Doll
TTITLE18=Almost
TTITLE19=Every Little Thing Rolled into One
TTITLE20=Be Sure You Know
TTITLE21=Whistle, My Love
TTITLE22=Please Believe
TTITLE23=Withered Roses
TTITLE24=You Love Me Just Enough to Hurt Me
TTITLE25=Lover's Quarrel
TTITLE26=Ain't Love Grand?
TTITLE27=Most of All
EXTD=
EXTT0=
EXTT1=
EXTT2=
EXTT3=
EXTT4=
EXTT5=
EXTT6=
EXTT7=
EXTT8=
EXTT9=
EXTT10=
EXTT11=
EXTT12=
EXTT13=
EXTT14=
EXTT15=
EXTT16=
EXTT17=
EXTT18=
EXTT19=
EXTT20=
EXTT21=
EXTT22=
EXTT23=
EXTT24=
EXTT25=
EXTT26=
EXTT27=
PLAYORDER=
